<?xml version="1.0" encoding="UTF-8"?>
<svg height="128px" viewBox="0 0 128 128" width="128px" xmlns="http://www.w3.org/2000/svg">
    <path d="m 20 16 h 88 c 4.417969 0 8 3.582031 8 8 v 84 c 0 4.417969 -3.582031 8 -8 8 h -88 c -4.417969 0 -8 -3.582031 -8 -8 v -84 c 0 -4.417969 3.582031 -8 8 -8 z m 0 0" fill="#ce9964"/>
    <path d="m 19.996094 12 h 87.945312 c 4.414063 0 7.996094 3.222656 7.996094 7.199219 v 75.601562 c 0 3.976563 -3.582031 7.199219 -7.996094 7.199219 h -87.945312 c -4.417969 0 -7.996094 -3.222656 -7.996094 -7.199219 v -75.601562 c 0 -3.976563 3.578125 -7.199219 7.996094 -7.199219 z m 0 0" fill="#e1bf9e"/>
    <path d="m 52 12 h 24 v 90 h -24 z m 0 0" fill="#fde0bf"/>
    <path d="m 52 102 h 24 v 14 h -24 z m 0 0" fill="#dab188"/>
    <path d="m 87.03125 24 h 17.9375 c 1.675781 0 3.03125 1.355469 3.03125 3.03125 v 25.9375 c 0 1.675781 -1.355469 3.03125 -3.03125 3.03125 h -17.9375 c -1.675781 0 -3.03125 -1.355469 -3.03125 -3.03125 v -25.9375 c 0 -1.675781 1.355469 -3.03125 3.03125 -3.03125 z m 0 0" fill="#ffffff"/>
    <g fill="#deddda">
        <path d="m 86.042969 30 h 18 v 2 h -18 z m 0 0"/>
        <path d="m 85.992188 33.960938 h 18 v 2 h -18 z m 0 0"/>
        <path d="m 86 38.039062 h 9.957031 v 2 h -9.957031 z m 0 0"/>
    </g>
</svg>
